<svg width="149" height="33" viewBox="0 0 149 33" fill="none" xmlns="http://www.w3.org/2000/svg">
<path d="M0.600006 31.9V8.1C0.600006 6.3 0.900009 4.9 1.40001 3.9C1.90001 2.9 2.5 2.1 3.2 1.6C3.9 1.1 4.50001 0.800001 5.10001 0.700001C5.70001 0.600001 6.1 0.5 6.2 0.5H12.5C13.6 0.6 14.5 0.8 15.3 1.1C16.1 1.4 16.7 1.8 17.3 2.2C17.8 2.6 18.3 3.1 18.6 3.7C18.9 4.2 19.2 4.8 19.5 5.3C19.7 5.8 19.9 6.3 20 6.8C20.1 7.3 20.2 7.7 20.3 8C20.3 8.2 20.3 8.4 20.3 8.6C20.3 8.8 20.3 9 20.4 9.2C20.4 9.4 20.4 9.6 20.4 9.8C20.4 10.2 20.4 10.7 20.3 11.2C20.3 11.7 20.2 12.2 20 12.8C19.9 13.3 19.7 13.9 19.4 14.4C19.1 14.9 18.8 15.4 18.4 15.9C18.7 16.2 19 16.6 19.4 17C19.8 17.4 20.1 17.9 20.4 18.5C20.7 19.1 21 19.7 21.2 20.4C21.4 21.1 21.5 21.9 21.5 22.7C21.5 24.1 21.3 25.3 20.9 26.4C20.5 27.5 19.9 28.5 19 29.3C18.1 30.1 17 30.7 15.7 31.1C14.3 31.5 12.7 31.7 10.7 31.7H0.600006V31.9ZM7.80001 5.3C7.30001 5.3 6.90001 5.4 6.60001 5.7C6.30001 6 6.10001 6.3 6.00001 6.6C5.90001 6.9 5.80001 7.2 5.80001 7.5C5.80001 7.8 5.80001 7.9 5.80001 8V27.2H10.5C12.6 27.2 14.1 26.8 15 25.9C16 25.1 16.4 23.8 16.4 22.2C16.4 21.2 16.1 20.3 15.5 19.5C14.9 18.7 13.8 18.3 12.3 18.1H9.90001V13.3H12.5C13.4 13.3 14.2 13.1 14.8 12.6C15.4 12.1 15.7 11.2 15.7 9.7C15.7 9.3 15.6 8.9 15.5 8.4C15.4 7.9 15.2 7.5 14.9 7C14.6 6.6 14.3 6.2 13.9 5.9C13.5 5.6 13 5.4 12.4 5.3H7.80001Z" fill="white"/>
<path d="M28.1 0.600006V15.4C28.2 17.2 28.5 18.8 29.1 20.3C29.7 21.8 30.4 23.1 31.4 24.1C32.3 25.1 33.4 25.9 34.7 26.5C36 27 37.3 27.3 38.8 27.2V0.600006H44V31.3C42.2 31.9 40.6 32.3 38.9 32.3C38.1 32.3 37.3 32.3 36.6 32.2C35.9 32.1 35.2 32 34.6 31.9C34 31.8 33.5 31.6 33.1 31.5C32.7 31.4 32.4 31.3 32.3 31.2C30.9 30.5 29.6 29.8 28.6 28.9C27.6 28 26.7 27.1 26 26.2C25.3 25.3 24.8 24.3 24.4 23.3C24 22.3 23.7 21.4 23.5 20.6C23.3 19.8 23.2 19 23.1 18.3C23 17.4 23 16.8 23 16.4V0.600006H28.1Z" fill="white"/>
<path d="M66.1 0.600006V19.2C66.1 21.1 65.7 22.8 65 24.3C64.3 25.8 63.4 27.2 62.2 28.3C61 29.4 59.6 30.3 58.1 30.9C56.5 31.5 54.9 31.8 53.1 31.8V27C54.1 27 55.1 26.8 56 26.5C56.9 26.2 57.7 25.7 58.4 25.2C59.1 24.6 59.7 23.9 60.2 23.1C60.7 22.3 61 21.4 61.1 20.3C59.2 20.3 57.8 20.2 56.7 19.9C55.6 19.6 54.9 19.4 54.7 19.3C53.3 18.6 52 17.9 51 17C50 16.1 49.1 15.2 48.4 14.2C47.7 13.2 47.2 12.2 46.7 11.2C46.3 10.2 46 9.3 45.8 8.40001C45.6 7.50001 45.5 6.70001 45.4 6.00001C45.3 5.30001 45.3 4.70001 45.3 4.3V0.600006H50.5V1.8C50.5 2.50001 50.5 3.4 50.6 4.3C50.7 5.3 50.8 6.3 51 7.3C51.2 8.3 51.5 9.10001 51.9 9.8C52.3 10.4 52.7 11.1 53.2 11.7C53.7 12.3 54.3 12.9 55.1 13.4C55.8 13.9 56.7 14.3 57.6 14.6C58.6 14.9 59.7 15.1 60.9 15.1V0.600006H66.1Z" fill="white"/>
<path d="M134.5 32.3V5.8H126.4V1H148.1V5.8H139.7V32.3H134.5Z" fill="white"/>
<path d="M123.6 5.9H116.3H115.9C115.8 5.9 115.7 6 115.6 6C115.5 6 115.4 6.1 115.3 6.2C115.1 6.4 115 6.7 115 7C115 7.3 114.9 7.5 114.9 7.5V14.3H123.5V19.1H115V32.5H110V8.5C110 7.3 110.1 6.4 110.4 5.5C110.7 4.7 111 4 111.4 3.4C111.8 2.8 112.2 2.4 112.7 2.1C113.2 1.8 113.6 1.6 114 1.4C114.4 1.3 114.8 1.2 115.1 1.1C115.4 1.1 115.6 1 115.7 1H123.6V5.9Z" fill="white"/>
<path d="M99.5 0.5V4.5V7.3C99.3 7.1 99.1 7 99 6.8C98 5.9 96.8 5.1 95.3 4.4C95.2 4.3 94.9 4.3 94.5 4.1C94.1 4 93.6 3.8 93 3.7C92.4 3.6 91.7 3.5 91 3.4C90.3 3.3 89.6 3.3 88.8 3.3V0.5H88.7C87.1 0.5 85.4 0.8 83.6 1.5V32.2H88.8V16.9V8.4H89H89.2C90.6 8.4 91.9 8.7 93.2 9.2C94.4 9.8 95.5 10.6 96.5 11.6C97.4 12.6 98.2 13.9 98.7 15.3C99.2 16.6 99.5 18.1 99.5 19.6V20.4V32.1H104.6V20.5V16.4V0.5H99.5Z" fill="white"/>
</svg>
