<svg width="156" height="32" viewBox="0 0 156 32" fill="none" xmlns="http://www.w3.org/2000/svg">
<path d="M4.63592 30V7.89287C4.63592 6.21639 4.92367 4.91523 5.49918 3.98941C6.07469 3.03857 6.72527 2.33794 7.45091 1.88754C8.17656 1.41212 8.86467 1.12437 9.51525 1.02428C10.1658 0.924189 10.5662 0.874145 10.7163 0.874145H17.4723C18.6233 0.94921 19.6117 1.12437 20.4374 1.39961C21.2882 1.67485 22.0013 2.02517 22.5768 2.45054C23.1774 2.8509 23.6653 3.3013 24.0406 3.80174C24.416 4.30219 24.7162 4.80263 24.9414 5.30308C25.1917 5.7785 25.3668 6.24141 25.4669 6.69181C25.592 7.11719 25.6921 7.48001 25.7672 7.78028C25.7672 7.95543 25.7797 8.13059 25.8047 8.30574C25.8297 8.4809 25.8422 8.66856 25.8422 8.86874C25.8673 9.06892 25.8798 9.2691 25.8798 9.46927C25.8798 9.84461 25.8548 10.27 25.8047 10.7454C25.7547 11.2208 25.6546 11.7088 25.5044 12.2092C25.3793 12.7097 25.1792 13.2101 24.9039 13.7105C24.6287 14.211 24.2658 14.6864 23.8154 15.1368C24.1407 15.412 24.491 15.7498 24.8664 16.1502C25.2667 16.5506 25.6296 17.0135 25.9548 17.5389C26.2801 18.0644 26.5429 18.6649 26.743 19.3405C26.9682 20.0161 27.0808 20.7418 27.0808 21.5175C27.0808 22.7936 26.8682 23.9571 26.4428 25.0081C26.0424 26.059 25.3793 26.9598 24.4535 27.7105C23.5277 28.4361 22.3391 28.9991 20.8878 29.3995C19.4366 29.7998 17.66 30 15.5581 30H4.63592ZM12.3678 5.26554C11.7923 5.26554 11.3544 5.39065 11.0541 5.64088C10.7538 5.8911 10.5286 6.16634 10.3785 6.46661C10.2534 6.76688 10.1783 7.05463 10.1533 7.32987C10.1283 7.5801 10.1158 7.71772 10.1158 7.74274V25.6461H15.1077C17.3097 25.6461 18.9236 25.2583 19.9495 24.4826C20.9754 23.6819 21.4884 22.5309 21.4884 21.0295C21.4884 20.0787 21.1506 19.253 20.475 18.5523C19.8244 17.8517 18.6734 17.4263 17.0219 17.2762H14.4321V12.7722H17.2471C18.248 12.7722 19.0487 12.5595 19.6492 12.1341C20.2748 11.6837 20.5876 10.7829 20.5876 9.43174C20.5876 9.05641 20.525 8.64354 20.3999 8.19314C20.2748 7.74274 20.0746 7.31736 19.7994 6.91701C19.5241 6.49163 19.1613 6.12881 18.7109 5.82854C18.2855 5.52828 17.7601 5.34061 17.1345 5.26554H12.3678ZM34.4643 0.874145V14.6489C34.5644 16.3254 34.9147 17.8642 35.5153 19.2655C36.1408 20.6417 36.9541 21.8177 37.9549 22.7936C38.9809 23.7695 40.1694 24.5201 41.5206 25.0456C42.8718 25.546 44.3356 25.7462 45.912 25.6461V0.874145H51.542V29.4745C49.6653 30.0751 47.8512 30.3753 46.0997 30.3753C45.2239 30.3753 44.3857 30.3253 43.5849 30.2252C42.8093 30.1501 42.0961 30.05 41.4455 29.9249C40.82 29.7998 40.282 29.6747 39.8316 29.5496C39.4062 29.4245 39.1185 29.3369 38.9683 29.2869C37.417 28.6613 36.0908 27.9357 34.9898 27.1099C33.9139 26.2842 33.0005 25.4334 32.2499 24.5577C31.5242 23.6819 30.9362 22.7936 30.4858 21.8928C30.0604 20.992 29.7351 20.1412 29.5099 19.3405C29.2847 18.5398 29.1346 17.8142 29.0595 17.1636C29.0095 16.513 28.9845 15.9876 28.9845 15.5872V0.874145H34.4643ZM75.6032 0.874145V18.2521C75.5782 20.0036 75.1903 21.605 74.4397 23.0563C73.714 24.4826 72.7131 25.7212 71.437 26.7721C70.1859 27.798 68.7096 28.5988 67.0081 29.1743C65.3316 29.7248 63.555 30 61.6783 30V25.4585C62.7543 25.4585 63.7677 25.3208 64.7185 25.0456C65.6944 24.7453 66.5577 24.3325 67.3083 23.807C68.084 23.2565 68.7096 22.6059 69.185 21.8553C69.6855 21.0796 70.0107 20.2163 70.1609 19.2655C68.1591 19.2655 66.5702 19.1278 65.3941 18.8526C64.2431 18.5774 63.53 18.3897 63.2547 18.2896C61.7034 17.664 60.3772 16.9384 59.2762 16.1127C58.1752 15.2869 57.2494 14.4237 56.4988 13.5229C55.7731 12.5971 55.1851 11.6712 54.7347 10.7454C54.2843 9.81959 53.9465 8.94381 53.7213 8.11808C53.4961 7.29234 53.346 6.55419 53.2709 5.90361C53.2208 5.22801 53.1958 4.69003 53.1958 4.28968V0.874145H58.8258C58.8258 0.974234 58.8258 1.36208 58.8258 2.03768C58.8258 2.71328 58.8633 3.50148 58.9384 4.40228C59.0385 5.30308 59.1886 6.2289 59.3888 7.17974C59.614 8.10556 59.9393 8.86874 60.3647 9.46927C60.765 10.0698 61.2405 10.6703 61.7909 11.2709C62.3665 11.8464 63.0421 12.3593 63.8177 12.8097C64.5934 13.2601 65.4942 13.6355 66.5201 13.9357C67.5461 14.211 68.7346 14.3486 70.0858 14.3486V0.874145H75.6032ZM95.6868 30.0375V5.34061H87.0166V0.874145H110.25V5.34061H101.317V30.0375H95.6868ZM126.714 5.22801H118.907H118.531C118.406 5.25303 118.294 5.27805 118.194 5.30308C118.093 5.3281 117.993 5.39065 117.893 5.49074C117.718 5.69092 117.606 5.92863 117.555 6.20388C117.505 6.47912 117.48 6.64176 117.48 6.69181V12.9599H126.714V17.4263H117.48V25.6461H126.714V30H112.113V7.66767C112.113 6.59172 112.251 5.67841 112.526 4.92774C112.801 4.15205 113.152 3.51399 113.577 3.01354C114.002 2.48808 114.465 2.08772 114.966 1.81248C115.466 1.51221 115.942 1.29952 116.392 1.17441C116.867 1.02428 117.28 0.936699 117.631 0.911678C117.981 0.861634 118.206 0.836612 118.306 0.836612H126.714V5.22801ZM146.465 0.536345C147.366 0.536345 148.267 0.611411 149.168 0.761544C150.068 0.911677 150.982 1.12437 151.908 1.39961V30H146.278V18.6649C145.427 18.4397 144.488 18.2771 143.463 18.177C142.462 18.0519 141.473 17.9893 140.497 17.9893C139.497 17.9893 138.508 18.0519 137.532 18.177C136.556 18.3021 135.656 18.4648 134.83 18.6649V30H129.35V15.3245C129.35 14.9241 129.375 14.3987 129.425 13.7481C129.5 13.0975 129.65 12.3719 129.876 11.5711C130.101 10.7704 130.413 9.93219 130.814 9.05641C131.239 8.15561 131.815 7.26732 132.54 6.39154C133.266 5.51576 134.154 4.69003 135.205 3.91434C136.281 3.11363 137.57 2.41301 139.071 1.81248C139.221 1.73741 139.522 1.63732 139.972 1.51221C140.447 1.36208 141.023 1.22445 141.699 1.09934C142.374 0.949211 143.112 0.8241 143.913 0.724011C144.739 0.5989 145.589 0.536345 146.465 0.536345ZM146.278 5.30308H146.24C144.213 5.30308 142.524 5.60334 141.173 6.20388C139.822 6.77939 138.721 7.50503 137.87 8.38081C137.044 9.23156 136.419 10.1574 135.993 11.1583C135.568 12.1592 135.268 13.06 135.093 13.8607C135.968 13.7356 136.857 13.648 137.758 13.5979C138.683 13.5229 139.584 13.4853 140.46 13.4853C141.361 13.4853 142.324 13.5229 143.35 13.5979C144.376 13.673 145.352 13.7856 146.278 13.9357V5.30308Z" fill="white"/>
</svg>
