<svg xmlns="http://www.w3.org/2000/svg" viewBox="0 0 286.21 78.79"><defs><style>.cls-1{fill:#fff;}.cls-2{fill:none;}</style></defs><g id="Layer_2" data-name="Layer 2"><g id="Layer_1-2" data-name="Layer 1"><path class="cls-1" d="M54.55,55.21a11,11,0,0,1-4.69-1,11.75,11.75,0,0,1-3.78-2.76,12.92,12.92,0,0,1-2.54-4.13,13.85,13.85,0,0,1-.93-5.11v-5a14,14,0,0,1,1-5.15,13.82,13.82,0,0,1,2.55-4.21A12.18,12.18,0,0,1,49.89,25,10.57,10.57,0,0,1,54.55,24H60v4.67H54.55a5,5,0,0,0-2.52.68,7.19,7.19,0,0,0-2.09,1.85,9.91,9.91,0,0,0-1.43,2.7A9.59,9.59,0,0,0,48,37.1v5.23a9.56,9.56,0,0,0,.51,3.16,8,8,0,0,0,1.4,2.56A6.65,6.65,0,0,0,52,49.76a5.57,5.57,0,0,0,2.57.62H60v4.83Z"/><path class="cls-1" d="M73.59,55.21H70.26A11.72,11.72,0,0,1,68.79,55a8.42,8.42,0,0,1-1.12-.3,5.46,5.46,0,0,1-.94-.36,10.94,10.94,0,0,1-3.29-2.26,11.24,11.24,0,0,1-2-2.79,12,12,0,0,1-1.07-3A13.51,13.51,0,0,1,60,43.54V24h5.11V43.1a8,8,0,0,0,.26,1.77,9.36,9.36,0,0,0,.87,2.27,7.27,7.27,0,0,0,1.63,2,4.81,4.81,0,0,0,2.52,1.15h3.19Z"/><path class="cls-1" d="M91.77,23.62a13.26,13.26,0,0,1,2.51.24,19.29,19.29,0,0,1,2.55.68V55.21H91.6V43.06a15.87,15.87,0,0,0-2.6-.55,21.82,21.82,0,0,0-2.77-.18,19.25,19.25,0,0,0-2.75.2,20.46,20.46,0,0,0-2.51.53V55.21H75.88V39.48c0-.43,0-1,.09-1.7a14.42,14.42,0,0,1,.4-2.33,19.5,19.5,0,0,1,.89-2.72,13.6,13.6,0,0,1,1.58-2.83,15.54,15.54,0,0,1,2.49-2.68A15.06,15.06,0,0,1,84.91,25a4.85,4.85,0,0,1,.85-.35c.43-.14,1-.29,1.59-.44s1.32-.28,2.07-.4a15,15,0,0,1,2.35-.18m-.17,5.11h0a10.41,10.41,0,0,0-4.7.94,9.52,9.52,0,0,0-3,2.34,9.74,9.74,0,0,0-1.76,3,17.61,17.61,0,0,0-.84,2.9c.81-.14,1.65-.24,2.49-.31s1.68-.1,2.5-.1,1.73,0,2.68.12A24.8,24.8,0,0,1,91.6,38Z"/><rect class="cls-1" x="98.75" y="23.94" width="5.11" height="31.27"/><path class="cls-1" d="M137.5,23.62a13.26,13.26,0,0,1,2.48.24,18.12,18.12,0,0,1,2.52.68V55.21h-5.21V28.73a10.94,10.94,0,0,0-3.82.6,9.08,9.08,0,0,0-2.76,1.59,9.42,9.42,0,0,0-1.91,2.2,13.1,13.1,0,0,0-1.21,2.43,15,15,0,0,0-.66,2.32,17.4,17.4,0,0,0-.28,1.81V46.6h-5.22V28.73a10.53,10.53,0,0,0-4.44.84,9.85,9.85,0,0,0-3,2.1,9.15,9.15,0,0,0-1.84,2.75,18.29,18.29,0,0,0-1,2.8,12.2,12.2,0,0,0-.37,2.21c0,.62,0,1,0,1V55.21h-5.15V39.47a15.79,15.79,0,0,1,1.33-6.6,15.31,15.31,0,0,1,8.63-8.15,16.88,16.88,0,0,1,6-1.1,13.55,13.55,0,0,1,2.5.24,18,18,0,0,1,2.54.68v3a15.34,15.34,0,0,1,4.95-2.9,17.2,17.2,0,0,1,5.9-1"/><path class="cls-1" d="M172.86,55.21h-3.32a11.45,11.45,0,0,1-1.47-.22,7.66,7.66,0,0,1-1.12-.3,5.6,5.6,0,0,1-.95-.36,10.94,10.94,0,0,1-3.29-2.26,11.49,11.49,0,0,1-2.05-2.79,12,12,0,0,1-1.07-3,13.51,13.51,0,0,1-.31-2.78V24h5.11V43.1a8.61,8.61,0,0,0,.26,1.77,9.4,9.4,0,0,0,.88,2.27,7.27,7.27,0,0,0,1.63,2,4.75,4.75,0,0,0,2.51,1.15h3.19Z"/><path class="cls-1" d="M191,23.62a13.44,13.44,0,0,1,2.52.24,19.42,19.42,0,0,1,2.56.68V55.21h-5.25V43.06a15.77,15.77,0,0,0-2.61-.55,22,22,0,0,0-2.78-.18,19.63,19.63,0,0,0-2.77.2,20.63,20.63,0,0,0-2.52.53V55.21h-5.11V39.48c0-.43,0-1,.09-1.7a15.61,15.61,0,0,1,.4-2.33,19.61,19.61,0,0,1,.9-2.72A13.22,13.22,0,0,1,178,29.9,15,15,0,0,1,184.13,25a4.71,4.71,0,0,1,.86-.35c.43-.14,1-.29,1.59-.44s1.32-.28,2.08-.4a15.15,15.15,0,0,1,2.36-.18m-.17,5.11h0a10.5,10.5,0,0,0-4.72.94A9.56,9.56,0,0,0,183,32a9.77,9.77,0,0,0-1.77,3,17.61,17.61,0,0,0-.84,2.9c.82-.14,1.65-.24,2.5-.31s1.69-.1,2.5-.1,1.74,0,2.7.12a24.66,24.66,0,0,1,2.73.37Z"/><path class="cls-1" d="M231.76,24a10.52,10.52,0,0,1,4.61,1,12.19,12.19,0,0,1,3.76,2.86,13.84,13.84,0,0,1,2.54,4.21,14.28,14.28,0,0,1,.92,5.13v5a13.91,13.91,0,0,1-.91,5.09,13,13,0,0,1-2.5,4.11,11.56,11.56,0,0,1-3.76,2.76,11.3,11.3,0,0,1-4.66,1h-8.85V31.51a9.13,9.13,0,0,1,.8-4.21A6.7,6.7,0,0,1,225.53,25a4.83,4.83,0,0,1,1.93-.9,8.79,8.79,0,0,1,1.12-.16Zm6.44,13.2a9.59,9.59,0,0,0-.54-3.22,9.91,9.91,0,0,0-1.43-2.7,7.19,7.19,0,0,0-2.09-1.85,5,5,0,0,0-2.48-.68l-1.54-.08a1.7,1.7,0,0,0-1.23.4,2.49,2.49,0,0,0-.61.89,3.31,3.31,0,0,0-.23.9c0,.28,0,.44,0,.46V50.42l1.71,0c.42,0,.74,0,1,0h.68a5.76,5.76,0,0,0,2.64-.62,6.81,6.81,0,0,0,2.17-1.73,8.45,8.45,0,0,0,1.47-2.6,9.34,9.34,0,0,0,.54-3.22Z"/><path class="cls-1" d="M215.1,23.58v6.79c-.17-.16-.35-.33-.54-.49a16.83,16.83,0,0,0-3.69-2.35c-.14-.06-.42-.15-.82-.28s-.91-.27-1.51-.41-1.26-.24-2-.34a16.72,16.72,0,0,0-2.16-.13V23.58h-.14a14.73,14.73,0,0,0-5.07,1V55.21h5.21V31.43h.42a9.49,9.49,0,0,1,4,.85,10,10,0,0,1,3.27,2.37,11.37,11.37,0,0,1,2.22,3.73,13.53,13.53,0,0,1,.8,4.32h0V55.21h5.11V23.58Z"/><rect class="cls-2" width="286.21" height="78.79"/></g></g></svg>